Patient4_TMGait_0pt6_01_right_27_EMG.mot
version=1
nRows=29
nColumns=33
inDegrees=no
endheader
time	1LAddLong	2LGlutMax	3LGlutMed	4LIliopsoas	5LSemiMemb	6LBicFemLong	7LRecFem	8LVastMed	9LVastLat	10LGasMed	11LTibAnt	12lTibPost	13LPeroneusLong	14LSol	15LExtDigLong	16LFlexDigLong	17RAddLong	18RGlutMax	19RGlutMed	20RIliopsoas	21RSemiMemb	22RBicFemLong	23RRecFem	24RVastMed	25RVastLat	26RGasMed	27RTibAnt	28RTibPost	29RPeroneusLong	30RSol	31RExtDigLong	32RFlexDigLong
32.25	0.001221	-0.078278	0.049133	0.012207	-0.007477	0.011597	0.10757	0.006256	0.029602	-0.018463	-0.23575	-0.023651	-0.034332	0.13153	-0.030975	-0.032654	-0.099792	-0.094604	-0.008087	-0.26291	0.050659	0.00351	0.032043	0.008087	-0.046997	-0.012207	0.21164	-0.006409	-0.57327	-0.059967	0.000305	-0.004883
32.251	0.006256	-0.055389	0.034332	0.003662	-0.000458	-0.020752	0.1265	0.005188	0.027161	-0.009308	-0.22888	-0.013733	0.00351	-0.073547	0.097504	-0.006409	-0.072327	-0.10284	0.099487	-0.26733	0.037842	-0.005646	0.045624	-0.010529	-0.03952	-0.013275	0.29373	-0.006104	-0.63828	-0.046234	-0.001373	-0.008545
32.252	-0.001678	-0.042419	0.077667	0.010529	0.016785	-0.006714	0.10025	0.006409	0.018158	-0.028229	-0.12344	-0.010529	0.1004	0.091553	0.05661	0.003662	-0.053253	-0.066528	0.065613	-0.18127	0.03067	0.010529	0.069275	-0.049133	-0.041504	-0.014648	0.21011	-0.002594	-0.39475	-0.046387	-0.001221	-0.005188
32.253	-0.000305	-0.041504	0.11612	0.00473	0.034332	0.009155	0.075226	0.007324	-0.000305	-0.027466	0.007324	-0.007629	0.11322	0.21668	-0.024567	0.030365	-0.07019	-0.054321	-0.055237	-0.06958	0.004883	-0.004578	0.045319	-0.08316	-0.037231	-0.00824	0.11444	-0.005188	-0.13306	-0.049438	0.000763	-0.00885
32.254	-0.012665	-0.039978	0.11017	0.006409	0	0.023804	0.077209	0.016174	-0.003967	-0.040131	0.015411	0.003815	0.046539	0.29343	-0.10483	0.014038	-0.063629	-0.046692	-0.010071	0.053711	0.014496	-0.003204	0.049133	-0.0737	-0.030975	-0.009918	0.098114	-0.004578	0.39703	-0.0383	0.001221	-0.020599
32.255	-0.011902	-0.035095	0.075836	0.014496	-0.039673	-0.056763	0.098419	0.002594	-0.011292	-0.036469	0.039978	-0.001373	-0.015564	0.27237	0.10452	0.006409	-0.05661	-0.07431	-0.043488	0.011139	0.040131	-0.007782	0.053864	-0.075226	-0.031281	-0.010223	-0.022583	-0.003967	0.76111	-0.078125	0.004578	0.009308
32.256	-0.006561	-0.045624	0.08194	0.016632	-0.059814	-0.1384	0.095673	0.011749	0.006104	-0.10315	0.064087	0.001831	-0.037689	0.19226	0.23407	-0.002441	-0.037994	-0.10712	0.21454	0.032043	0.040588	0.004425	0.08667	-0.092316	-0.033569	-0.003815	-0.06897	-0.004883	0.93826	-0.16815	0.00061	-0.001068
32.257	-0.001984	-0.022583	0.032959	0.016785	-0.043335	-0.21576	0.14771	0.006714	0.029755	-0.16754	0.066681	0.005493	-0.044861	0.14786	-0.06546	-0.013428	-0.041962	-0.11566	0.31235	0.020752	0.028534	0.022583	0.075531	-0.090942	-0.025024	-0.000916	-0.036163	-0.010071	0.49515	-0.13397	-0.000916	0.004272
32.258	0.003967	-0.023041	-0.043488	-0.001068	0.046997	-0.18539	0.21133	0.007477	0.096893	-0.20798	-0.036774	0.011139	0.047607	0.06546	-0.080261	-0.014801	-0.038452	-0.12177	0.17532	-0.036316	-0.027313	0.03952	0.085297	-0.086823	-0.007172	0.001526	0.12589	-0.003662	-0.23148	-0.062256	0	0.001221
32.259	0.002289	-0.06546	-0.085144	-0.012817	0.028839	-0.094452	0.18997	0.005951	0.092163	-0.40207	-0.000458	0.006104	0.026855	0.023956	-0.1767	0.004578	-0.026855	-0.12039	0.08316	-0.02243	-0.039978	0.010223	0.04776	-0.042877	-0.014343	-0.010071	-0.021973	-0.005035	-0.38925	-0.005493	0.000458	0.002441
32.26	0.021973	-0.103	-0.1091	-0.002441	-0.003052	0.010681	0.13748	0.004272	0.07843	-0.07843	0.093231	0.009766	-0.13458	0.014954	-0.019226	0.024719	-0.014496	-0.10117	-0.10498	-0.00412	-0.022583	0.009155	0.007935	-0.040131	-0.017853	-0.00946	-0.27771	-0.006409	-0.39673	0.007172	-0.002899	-0.005341
32.261	0.02121	-0.087128	-0.043793	0.003815	0.011292	0.097961	0.13519	0.015869	0.052795	0.55695	0.099487	-0.004578	-0.11002	-0.17853	0.041809	-0.006561	0.003204	-0.1329	-0.093994	0.051422	-0.003357	-0.001526	0.024261	-0.029755	-0.010529	-0.014801	-0.42053	-0.012665	-0.16525	0.00824	-0.001221	-0.009918
32.262	0.02533	-0.075836	0.016479	-0.001984	0.076141	0.082855	0.12299	0.007172	0.043793	0.99609	0.039825	-0.013733	-0.021667	-0.27145	-0.011597	-0.033722	0.025024	-0.12589	-0.000458	0.13321	-0.005188	0.001221	-0.055237	-0.061798	-0.011902	-0.00824	-0.13001	-0.007172	0.013428	-0.037079	0.001526	-0.011444
32.263	0.019073	-0.04715	0.046387	0.000458	0.065308	0.037079	0.1471	0.000916	0.052338	0.60272	0.015106	-0.015564	0.010071	-0.23392	-0.097809	-0.033569	0.03067	-0.112	0.1294	0.047455	-0.028229	-0.020142	-0.091705	-0.041504	-0.020142	-0.006104	0.15595	-0.003815	0.016937	-0.086365	0.00061	-0.005493
32.264	0.013123	-0.051727	0.012665	0.00885	0.036774	0.022583	0.16083	0.000305	0.034637	0.36591	-0.056763	0.020294	0.001984	-0.26886	-0.10773	-0.008392	0.027161	-0.083771	0.23239	-0.006866	-0.020599	0.011139	-0.11414	-0.050507	-0.011444	-0.010681	0.30762	-0.005798	-0.074005	0.037842	-0.003052	-0.013123
32.265	0.023804	-0.031891	0.009308	-0.001068	0.022125	0.036316	0.15411	0.001526	0.002136	0.61996	-0.071106	0.025635	0.032654	-0.24338	-0.10666	-0.44922	0.030365	-0.11551	0.21851	0.001221	-0.027313	-0.004272	-0.070343	-0.072632	-0.005646	-0.015259	0.37979	-0.014191	-0.168	0.10742	-0.000916	-0.010681
32.266	0.016632	-0.04303	-0.042877	0.00885	0.020447	0.005646	0.15686	0.008545	0.03006	0.88165	-0.076904	0.014801	0.091095	0.063324	-0.027618	0.392	0.021515	-0.13596	-0.12741	0.037537	-0.04364	0.003662	0.001068	-0.066071	-0.009155	-0.018158	0.59021	-0.005493	-0.21652	0.044556	-0.00351	-0.010376
32.267	0.007935	-0.04425	-0.006409	0.019684	0.023193	0.024719	0.15259	0.008392	0.12207	0.86289	-0.058746	0.028229	0.06134	0.077972	0.03891	0.19836	0.005341	-0.089874	0.11704	0.058594	-0.068665	-0.002899	0.006561	-0.083923	-0.013885	-0.007629	0.39993	-0.00473	-0.12802	0.007172	-0.003357	-0.003357
32.268	0.005798	-0.023346	0.13382	0.020294	0.021973	0.032349	0.17425	0.005646	0.18738	0.58243	-0.056	0.023193	0.010834	0.044861	0.14465	-0.04837	0.033722	-0.092773	0.076904	-0.030823	-0.098572	-0.006256	0.011444	-0.024261	-0.01358	-0.008087	0.002441	-0.006256	0.13748	-0.017242	-0.000305	-0.002747
32.269	0.008392	-0.049133	0.12283	0.004883	0.012512	0.043335	0.21698	0.016479	0.20065	0.3627	-0.020905	0.014191	-0.009766	-0.1001	0.24048	-0.075073	0.046692	-0.10864	0.14633	-0.10422	-0.097198	-0.012207	0.006561	-0.047455	-0.000458	-0.010681	-0.33096	-0.009003	0.29602	-0.017395	-0.001221	-0.002136
32.27	0.002136	-0.095978	0.11978	0.011444	0.014648	0.027618	0.2092	0.010071	0.1239	-0.028839	0.039368	0.085907	0.021667	-0.1915	0.24826	-0.24963	0.066681	-0.08606	-0.045624	-0.099945	-0.03006	-0.001678	0.06424	-0.03952	-0.015717	-0.019989	-0.50461	-0.002747	0.032196	-0.019226	-0.002441	0.002747
32.271	-0.00061	-0.1062	0.089874	0.018005	0.010681	-0.019073	0.22492	0.010376	-0.026093	0.21286	0.10376	0.02533	0.027924	-0.41763	-0.009766	0.17425	0.075531	-0.070343	-0.043488	-0.025177	0.063477	0.042419	0.032654	-0.043945	-0.006409	-0.000763	-0.6015	-0.004425	-0.011139	-0.015106	-0.000916	0.007324
32.272	0.007019	-0.12146	0.11139	0.023499	0.016479	-0.029755	0.18753	0.014954	-0.017242	0.40024	0.04303	-0.050812	-0.009155	-0.31433	-0.1831	-0.015106	0.076599	-0.054779	0.032196	0.016479	0.099487	-0.016632	0.004425	-0.033264	-0.003662	-0.001526	-0.48004	-0.001984	-0.019989	-0.032806	-0.003357	0.001068
32.273	0.012817	-0.15045	0.063324	0.015411	0.022583	-0.031281	-0.051575	0.016479	-0.29175	-0.35767	-0.018768	0.012054	-0.059967	0.18143	-0.35507	-0.21088	0.037842	-0.063629	-0.067902	0.090942	0	0.014038	0.013733	-0.05127	0.014801	0.001831	-0.094452	0.006104	-0.070953	-0.064545	-0.001068	-0.003357
32.274	0.017242	-0.14633	0.011597	0.015106	0.016022	-0.020752	-0.1358	0.011597	-0.32898	-1.0631	-0.025787	-0.024872	-0.01709	0.61768	-0.29022	0.28671	0.004883	-0.066833	-0.049896	0.093384	-0.089874	0.067291	-0.025787	-0.075531	0.013885	0.004272	0.050354	-0.002136	-0.026245	-0.069733	-0.001373	-0.00061
32.275	0.013733	-0.1265	0.020294	0.007477	0.011444	-0.010681	-0.11063	0.006561	-0.17761	-1.2822	0.023041	0.1358	-0.06073	0.39414	-0.097046	0.11078	-0.042877	-0.061951	-0.034027	0.028229	-0.026398	0.067902	-0.021973	-0.061951	0.006409	0.013733	0.28748	-0.00351	-0.074005	-0.035248	-0.001068	-0.002594
32.276	0.01297	-0.11856	0.12878	-0.004578	0.002747	0.017395	0.038605	0.00061	-0.042572	-0.94086	0.13931	0.058441	-0.054321	0.13641	0.27329	-0.01297	-0.061188	-0.029144	-0.050507	0.028839	0.002594	0.054779	-0.0383	-0.087585	0.001831	0.012817	0.28519	-0.007629	-0.12817	-0.032806	-0.002441	-0.012054
32.277	0.000305	-0.15762	0.12817	0.007324	0.009155	0.008698	0.1915	-0.004578	0.004883	-0.55969	0.2388	-0.027466	-0.1001	0.26001	-0.043945	-0.044708	-0.056305	-0.07843	-0.094757	0.016479	-0.040741	0.032959	-0.029907	-0.14267	0.006409	0.019073	0.032043	-0.009918	-0.088959	-0.079041	-0.000763	-0.011139
32.278	0.000305	-0.13947	0.1535	-0.007172	0.009308	0.016632	0.20142	-0.006561	-0.019379	-0.35904	0.18433	0.006409	-0.044556	0.16419	-0.022125	-0.041809	-0.030518	-0.024109	-0.11398	-0.030975	-0.024109	0.008545	-0.021515	-0.12451	-0.000458	0.024719	-0.085449	-0.001984	-0.081787	-0.02533	-0.003357	-0.007172
